HIERARCHY
ROOT SpineBase
{
  OFFSET 0.000000 0.000000 0.000000
  CHANNELS 6 Xposition Yposition Zposition Zrotation Xrotation Yrotation
  JOINT SpineMid
  {
    OFFSET 0.000000 31.461500 0.000000
    CHANNELS 3 Zrotation Xrotation Yrotation
    JOINT SpineShoulder
    {
      OFFSET -0.187397 23.285874 -0.817235
      CHANNELS 3 Zrotation Xrotation Yrotation
      JOINT Neck
      {
        OFFSET -0.151343 7.672676 -0.612226
        CHANNELS 3 Zrotation Xrotation Yrotation
        JOINT Head
        {
          OFFSET -3.466671 12.148792 2.953855
          CHANNELS 3 Zrotation Xrotation Yrotation
          End Site
          {
            OFFSET 0 0 0
          }
        }
      }
      JOINT ShoulderLeft
      {
        OFFSET -12.251439 -4.401798 11.121018
        CHANNELS 3 Zrotation Xrotation Yrotation
        JOINT ElbowLeft
        {
          OFFSET -1.126076 -25.890823 3.521905
          CHANNELS 3 Zrotation Xrotation Yrotation
          JOINT WristLeft
          {
            OFFSET -4.836043 -22.983786 0.169135
            CHANNELS 3 Zrotation Xrotation Yrotation
            JOINT HandLeft
            {
              OFFSET -3.352918 -4.828414 -1.330048
              CHANNELS 3 Zrotation Xrotation Yrotation
              JOINT HandTipLeft
              {
                OFFSET -0.413902 -5.731331 -1.324063
                CHANNELS 3 Zrotation Xrotation Yrotation
                End Site
                {
                  OFFSET 0 0 0
                }
              }
              JOINT ThumbLeft
              {
                OFFSET -1.685622 1.258755 -2.183759
                CHANNELS 3 Zrotation Xrotation Yrotation
                End Site
                {
                  OFFSET 0 0 0
                }
              }
            }
          }
        }
      }
      JOINT ShoulderRight
      {
        OFFSET 9.066070 -4.051512 -11.233743
        CHANNELS 3 Zrotation Xrotation Yrotation
        JOINT ElbowRight
        {
          OFFSET 6.956951 -25.401444 -3.538615
          CHANNELS 3 Zrotation Xrotation Yrotation
          JOINT WristRight
          {
            OFFSET 0.073468 -23.593201 -8.938166
            CHANNELS 3 Zrotation Xrotation Yrotation
            JOINT HandRight
            {
              OFFSET -1.840252 -5.301468 -2.761630
              CHANNELS 3 Zrotation Xrotation Yrotation
              JOINT HandTipRight
              {
                OFFSET 0.086470 -5.775109 -1.581905
                CHANNELS 3 Zrotation Xrotation Yrotation
                End Site
                {
                  OFFSET 0 0 0
                }
              }
              JOINT ThumbRight
              {
                OFFSET -2.232189 -0.682158 -0.631899
                CHANNELS 3 Zrotation Xrotation Yrotation
                End Site
                {
                  OFFSET 0 0 0
                }
              }
            }
          }
        }
      }
    }
  }
  JOINT HipLeft
  {
    OFFSET -5.294850 -0.618095 0.623109
    CHANNELS 3 Zrotation Xrotation Yrotation
    JOINT KneeLeft
    {
      OFFSET 4.808184 -35.346382 3.906341
      CHANNELS 3 Zrotation Xrotation Yrotation
      JOINT AnkleLeft
      {
        OFFSET 9.896432 -38.238179 6.878198
        CHANNELS 3 Zrotation Xrotation Yrotation
        JOINT FootLeft
        {
          OFFSET -2.892191 -7.818451 -3.498011
          CHANNELS 3 Zrotation Xrotation Yrotation
          End Site
          {
            OFFSET 0 0 0
          }
        }
      }
    }
  }
  JOINT HipRight
  {
    OFFSET 3.508562 1.452620 -8.157513
    CHANNELS 3 Zrotation Xrotation Yrotation
    JOINT KneeRight
    {
      OFFSET 7.331794 -34.169368 -4.314772
      CHANNELS 3 Zrotation Xrotation Yrotation
      JOINT AnkleRight
      {
        OFFSET 9.809107 -39.074264 6.021975
        CHANNELS 3 Zrotation Xrotation Yrotation
        JOINT FootRight
        {
          OFFSET -7.799481 -3.831423 -10.115277
          CHANNELS 3 Zrotation Xrotation Yrotation
          End Site
          {
            OFFSET 0 0 0
          }
        }
      }
    }
  }
}
MOTION
Frames: 12
Frame Time: 0.033333
102.846319 83.477733 424.791635 0.119229 -0.710249 45.265877 0.420644 0.584580 -45.267284 -0.000000 0.000000 0.000000 1.829424 0.520406 -0.302938 0.000000 0.000000 0.000000 1.585281 1.510766 0.129353 1.908485 -4.592920 0.693580 11.053531 -6.986291 3.208741 -10.408843 4.716666 -2.970003 0.000000 0.000000 0.000000 0.000000 0.000000 0.000000 -0.000000 0.000000 0.000000 -0.000000 0.000000 0.000000 5.339260 -4.783837 -0.934027 -6.917696 3.580580 1.883858 0.000000 0.000000 0.000000 0.000000 0.000000 0.000000 1.367743 2.052162 -45.098275 0.720249 -0.814498 0.116106 -0.410580 4.252076 -2.122600 0.000000 0.000000 0.000000 2.038406 2.948684 -44.646498 1.064063 -2.009650 -0.346306 -0.658458 -1.268237 0.929306 0.000000 0.000000 0.000000
103.014566 83.566829 425.010142 0.134918 -0.746290 45.411752 0.436785 0.619982 -45.413237 -0.000000 0.000000 0.000000 1.468263 0.199793 -0.301332 0.000000 0.000000 0.000000 1.301243 0.615901 0.143408 1.823868 -2.537687 0.357870 10.323576 -8.527961 4.393129 -9.096348 5.108094 -3.764802 0.000000 0.000000 0.000000 0.000000 0.000000 0.000000 -0.000000 0.000000 0.000000 -0.688017 0.652549 0.266036 6.506161 -8.641638 -0.057653 -6.501618 8.446168 0.942026 0.000000 0.000000 0.000000 0.000000 0.000000 0.000000 1.454992 2.492329 -45.231374 0.943516 -1.051392 0.126061 0.280872 2.592460 -1.900590 0.000000 0.000000 0.000000 2.449861 4.088820 -44.534142 0.997295 -3.883833 -0.928024 -1.770788 0.745121 3.022377 0.000000 0.000000 0.000000
103.247149 83.649157 425.253346 0.055596 -0.817208 45.447620 0.543365 0.612931 -45.450130 -0.000000 0.000000 0.000000 1.262582 0.006802 -0.304169 0.000000 0.000000 0.000000 0.892557 -0.061899 0.124623 1.922797 -0.787771 0.093904 9.265508 -9.069594 4.696505 -8.377074 6.938305 -3.889348 0.000000 0.000000 0.000000 0.000000 0.000000 0.000000 -0.000000 0.000000 0.000000 -1.048923 1.089258 0.409290 7.383714 -9.931008 -0.031557 -6.600601 12.029443 0.863886 0.000000 0.000000 0.000000 0.000000 0.000000 0.000000 1.612565 2.972773 -45.257081 1.189379 -1.344154 0.127977 -1.998768 4.742105 -1.597514 0.000000 0.000000 0.000000 3.033730 5.064588 -44.345236 1.329877 -4.923068 -1.171171 0.328839 -0.793317 0.767564 0.000000 0.000000 0.000000
103.514236 83.721982 425.490915 -0.049409 -0.803621 45.461626 0.607478 0.528420 -45.464774 -0.000000 0.000000 0.000000 0.074788 -1.014098 -0.307507 0.000000 0.000000 0.000000 0.197937 -0.887006 0.066971 2.431908 0.848868 -0.077009 8.438410 -10.419667 5.728310 -7.463112 7.110202 -4.566898 0.000000 0.000000 0.000000 0.000000 0.000000 0.000000 -0.000000 0.000000 0.000000 -1.533207 1.237485 0.598864 8.990144 -9.441750 -1.002852 -8.145894 10.991402 1.893040 0.000000 0.000000 0.000000 0.000000 0.000000 0.000000 1.776056 3.419490 -45.252222 1.395518 -1.728506 0.108112 -6.232996 9.545149 -1.035839 0.000000 0.000000 0.000000 3.947241 6.203769 -44.085456 1.999015 -7.362731 -1.601058 1.637957 -1.199767 -1.109733 0.000000 0.000000 0.000000
103.877310 83.810131 425.683390 -0.458218 -0.952001 45.643361 0.086079 0.276916 -45.671732 -0.121395 0.109588 -0.040859 0.535179 -0.729832 -0.267701 0.000000 0.000000 0.000000 -0.137842 -0.580490 -0.000350 3.216920 1.406832 -0.028921 7.077229 -10.116365 5.609137 -7.325194 8.000970 -4.275139 0.000000 0.000000 0.000000 0.000000 0.000000 0.000000 0.716681 0.588061 0.065127 -1.903899 1.301635 0.743858 10.439019 -9.436860 -1.678206 -10.188485 12.606128 2.987576 0.000000 0.000000 0.000000 0.000000 0.000000 0.000000 2.012363 3.861965 -45.453070 1.874500 -2.008158 0.138620 -11.594649 15.204033 0.199653 0.000000 0.000000 0.000000 5.402901 7.393784 -43.971973 3.075258 -10.196831 -1.929496 2.009111 -1.264519 -2.320544 0.000000 0.000000 0.000000
104.273613 83.888265 425.844195 -1.117541 -1.172963 45.794381 -0.057705 0.249077 -45.857429 -0.148154 0.040376 -0.080987 0.534936 -1.014748 -0.221284 0.000000 0.000000 0.000000 -0.791133 -0.590922 -0.106656 3.573021 1.729273 0.153393 7.876647 -9.052598 4.800578 -8.522282 9.552407 -3.333246 0.000000 0.000000 0.000000 0.000000 0.000000 0.000000 0.562792 0.022868 -0.006791 -1.416770 2.250945 1.081854 12.337850 -9.009540 -2.735696 -14.014713 15.301372 5.040702 0.000000 0.000000 0.000000 0.000000 0.000000 0.000000 2.367911 4.204645 -45.636677 2.454268 -2.229160 0.192703 -17.194964 20.373297 2.070120 0.000000 0.000000 0.000000 7.143079 8.543255 -43.818211 4.729511 -13.072823 -1.979831 1.283050 -1.044000 -2.927133 0.000000 0.000000 0.000000
104.916896 83.914449 425.854726 -1.900137 -1.417462 46.056427 -0.139380 0.182640 -46.162324 -0.131940 -0.014113 -0.120765 0.210633 -1.362149 -0.112937 0.000000 0.000000 0.000000 -1.087981 -0.054242 -0.171318 3.338992 1.477244 0.348067 9.183278 -7.627956 3.652887 -9.687789 6.064800 -1.961533 0.000000 0.000000 0.000000 0.000000 0.000000 0.000000 0.464101 0.097557 0.094608 -0.828804 2.310650 1.163637 13.780304 -7.818562 -3.893966 -16.561433 16.265754 6.539696 0.000000 0.000000 0.000000 0.000000 0.000000 0.000000 2.601277 4.564389 -45.961826 3.226113 -2.426233 0.262844 -21.878438 24.560666 4.023214 0.000000 0.000000 0.000000 8.564972 9.569831 -43.779228 7.142579 -15.153328 -1.597714 -0.394738 -0.802277 -3.181788 0.000000 0.000000 0.000000
105.707322 83.878508 425.798923 -2.724082 -1.686315 46.202962 -0.185921 0.131253 -46.357931 -0.124727 -0.049934 -0.162197 -0.773109 -2.038383 0.068976 0.000000 0.000000 0.000000 -1.748437 -0.269770 -0.268935 2.555407 1.113750 0.723294 11.460874 -5.686177 2.405856 -11.669259 2.924450 -0.553594 0.000000 0.000000 0.000000 0.000000 0.000000 0.000000 0.262795 0.063666 0.197580 0.030959 2.507400 1.190662 14.684901 -5.377875 -5.395305 -18.944079 13.962722 7.990399 0.000000 0.000000 0.000000 0.000000 0.000000 0.000000 2.729068 4.954202 -46.190312 4.060884 -2.590795 0.332855 -24.965768 27.460019 5.542563 0.000000 0.000000 0.000000 9.784334 10.345794 -43.668222 9.861484 -16.574500 -0.882140 -2.878679 -0.326716 -3.015034 0.000000 0.000000 0.000000
106.564437 83.794085 425.595990 -3.564741 -1.979839 45.967437 -0.207260 0.125039 -46.176449 -0.119692 -0.050045 -0.203575 -3.033225 -3.143013 0.428795 0.000000 0.000000 0.000000 -2.708429 -1.206441 -0.421504 1.812776 2.150825 0.997989 13.520223 -2.765856 0.167226 -12.665717 -2.120809 1.421274 0.000000 0.000000 0.000000 0.000000 0.000000 0.000000 -0.542034 -0.403843 0.285724 1.507247 3.141713 1.228113 15.205071 -2.604771 -6.851454 -20.765178 10.312650 9.009201 0.000000 0.000000 0.000000 0.000000 0.000000 0.000000 2.833463 5.301791 -46.039584 4.866046 -2.825545 0.370306 -25.999494 29.325798 6.169122 0.000000 0.000000 0.000000 10.761615 10.621434 -43.275900 12.280861 -17.049166 -0.009591 -5.776609 0.333213 -2.563614 0.000000 0.000000 0.000000
107.570302 83.638133 425.227725 -4.628673 -2.316358 45.946232 -0.195889 0.136124 -46.226442 -0.103363 -0.034820 -0.253060 -4.646968 -4.153748 0.692573 0.000000 0.000000 0.000000 -2.812272 -1.938055 -0.494539 0.198170 3.885822 1.147807 15.702267 -2.317806 -0.300712 -14.475636 -2.757416 2.427945 0.000000 0.000000 0.000000 0.000000 0.000000 0.000000 -0.248762 -0.391570 0.392727 2.054656 3.056104 1.269193 14.339748 -1.421692 -6.782824 -20.287609 10.259903 8.809322 0.000000 0.000000 0.000000 0.000000 0.000000 0.000000 2.701871 5.476881 -46.169739 6.020058 -2.640481 0.512355 -30.363512 33.239030 8.524044 0.000000 0.000000 0.000000 11.823706 10.101711 -43.189886 13.815015 -16.674415 0.713596 -8.647528 1.149076 -1.519311 0.000000 0.000000 0.000000
108.759302 83.399000 424.694974 -5.655273 -2.608174 45.345064 -0.097018 0.125516 -45.694160 -0.051092 0.006675 -0.292341 -6.743508 -5.584250 0.848226 0.000000 0.000000 0.000000 -2.823782 -3.294438 -0.587928 -1.975590 6.900613 1.357385 18.562354 -1.235936 -1.579253 -15.591252 -5.266533 3.948132 0.000000 0.000000 0.000000 0.000000 0.000000 0.000000 -0.086072 -0.519524 0.471643 2.227246 2.987160 1.469786 13.422254 -0.678189 -6.421923 -20.668716 9.459161 8.736152 0.000000 0.000000 0.000000 0.000000 0.000000 0.000000 2.177827 5.868650 -45.751323 7.589152 -2.540766 0.674278 -30.691149 34.205119 8.863547 0.000000 0.000000 0.000000 12.279517 8.907973 -42.668799 14.220022 -15.133102 1.088215 -11.131918 2.523102 -0.865712 0.000000 0.000000 0.000000
110.034865 83.108226 424.103354 -6.663225 -2.876447 44.668950 -0.038521 0.144185 -45.089802 -0.037151 0.031853 -0.335747 -8.834153 -7.234305 0.858512 0.000000 0.000000 0.000000 -3.327179 -4.619956 -0.781773 -3.574420 9.576454 1.844739 20.678884 0.455895 -2.954860 -15.522417 -5.309477 5.219583 0.000000 0.000000 0.000000 0.000000 0.000000 0.000000 0.095821 -0.737337 0.528845 2.323211 3.256552 1.751622 12.405899 -0.600386 -5.757595 -19.108104 10.220709 7.997132 0.000000 0.000000 0.000000 0.000000 0.000000 0.000000 1.933831 6.481833 -45.195129 8.805735 -3.235037 0.617153 -28.322515 33.777494 8.146607 0.000000 0.000000 0.000000 12.471408 7.663787 -42.104163 14.103155 -13.339136 1.198903 -13.043012 3.119119 1.305515 0.000000 0.000000 0.000000
